<?xml version="1.0" encoding="UTF-8" standalone="no"?>
<svg
   xmlns:dc="http://purl.org/dc/elements/1.1/"
   xmlns:cc="http://creativecommons.org/ns#"
   xmlns:rdf="http://www.w3.org/1999/02/22-rdf-syntax-ns#"
   xmlns:svg="http://www.w3.org/2000/svg"
   xmlns="http://www.w3.org/2000/svg"
   xmlns:sodipodi="http://sodipodi.sourceforge.net/DTD/sodipodi-0.dtd"
   xmlns:inkscape="http://www.inkscape.org/namespaces/inkscape"
   id="Layer_1"
   data-name="Layer 1"
   viewBox="0 0 188.62 22.66"
   version="1.1"
   sodipodi:docname="logo.svg"
   inkscape:version="0.92.4 (5da689c313, 2019-01-14)">
  <metadata
     id="metadata37">
    <rdf:RDF>
      <cc:Work
         rdf:about="">
        <dc:format>image/svg+xml</dc:format>
        <dc:type
           rdf:resource="http://purl.org/dc/dcmitype/StillImage" />
      </cc:Work>
    </rdf:RDF>
  </metadata>
  <sodipodi:namedview
     pagecolor="#ffffff"
     bordercolor="#666666"
     borderopacity="1"
     objecttolerance="10"
     gridtolerance="10"
     guidetolerance="10"
     inkscape:pageopacity="0"
     inkscape:pageshadow="2"
     inkscape:window-width="3840"
     inkscape:window-height="2126"
     id="namedview35"
     showgrid="false"
     inkscape:zoom="16.626021"
     inkscape:cx="99.04574"
     inkscape:cy="6.6730136"
     inkscape:window-x="-11"
     inkscape:window-y="-11"
     inkscape:window-maximized="1"
     inkscape:current-layer="Layer_1" />
  <defs
     id="defs4">
    <style
       id="style2">.cls-1{font-size:22.31px;font-family:ProductSans:Regular, Product Sans;letter-spacing:0.02em;}.cls-1,.cls-8{fill:#fff;}.cls-2{letter-spacing:0.01em;}.cls-3{letter-spacing:0.01em;}.cls-4{fill:#4285f4;}.cls-5{fill:#0e9d58;}.cls-6{fill:#eb4335;}.cls-7{fill:#fbbc06;}</style>
    <style
       type="text/css"
       id="style5">@import urlhttps://fonts.googleapis.com/css?family=Product+Sans);</style>
  </defs>
  <title
     id="title6">GDGDublin</title>
  <g
     aria-label="Dublin"
     transform="translate(113.89,19.32)"
     style="font-size:22.30999947px;font-family:ProductSans;letter-spacing:0.02em;fill:#ffffff"
     id="text18">
    <path
       d="m 15.882802,-8.0939109 q 0,2.2113915 -0.969526,4.008828 -0.958633,1.7974365 -2.559985,2.7887499 -1.111143,0.68629395 -2.4837307,0.99131348 Q 8.507866,0 6.2746873,0 H 2.1787109 v -16.220503 h 4.0524022 q 2.3747949,0 3.7691699,0.348594 1.405268,0.3377 2.374795,0.936846 1.65582,1.034888 2.581772,2.756069 0.925952,1.721182 0.925952,4.0850831 z m -2.254965,-0.032681 q 0,-1.9063724 -0.664507,-3.2135984 -0.664507,-1.307227 -1.982627,-2.058882 -0.958633,-0.544678 -2.0370948,-0.751655 -1.0784619,-0.217871 -2.5817724,-0.217871 H 4.3356347 v 12.5166937 h 2.0262011 q 1.5577783,0 2.712495,-0.2287646 1.1656102,-0.2287646 2.1351372,-0.8496972 1.209184,-0.7734424 1.80833,-2.0370947 0.610039,-1.2636523 0.610039,-3.1591308 z"
       style="font-size:22.30999947px;font-family:ProductSans;letter-spacing:0.02em;fill:#ffffff"
       id="path21" />
    <path
       d="m 29.760755,0 h -2.047988 v -1.3508007 q -1.034888,0.81701653 -1.982627,1.25275871 -0.947739,0.43574218 -2.091562,0.43574218 -1.917266,0 -2.984834,-1.16561033 Q 19.586175,-2.004414 19.586175,-4.2702733 V -12.1681 h 2.047989 v 6.9283003 q 0,0.9259521 0.08715,1.590459 0.08715,0.6536132 0.370381,1.1220361 0.294126,0.4793164 0.762549,0.6971875 0.468423,0.217871 1.361694,0.217871 0.795229,0 1.732075,-0.413955 0.947739,-0.4139551 1.764756,-1.0566748 V -12.1681 h 2.047988 z"
       style="font-size:22.30999947px;font-family:ProductSans;letter-spacing:0.02em;fill:#ffffff"
       id="path23" />
    <path
       d="m 44.945935,-6.1766454 q 0,1.5250977 -0.435742,2.7451758 -0.424849,1.2200781 -1.154717,2.0479882 -0.773442,0.86059079 -1.699395,1.29633296 -0.925952,0.42484863 -2.037094,0.42484863 -1.034888,0 -1.80833,-0.25055175 -0.773443,-0.2396582 -1.525098,-0.65361327 L 36.154836,0 h -1.917265 v -16.950371 h 2.047988 v 6.056817 q 0.860591,-0.708081 1.830117,-1.154717 0.969527,-0.457529 2.178711,-0.457529 2.156924,0 3.398789,1.65582 1.252759,1.6558201 1.252759,4.6733346 z m -2.11335,0.054468 q 0,-2.1787109 -0.718974,-3.300747 -0.718975,-1.1329294 -2.320327,-1.1329294 -0.893272,0 -1.80833,0.392168 -0.915059,0.3812741 -1.699395,0.9913132 v 6.9718748 q 0.871484,0.392168 1.492417,0.5446777 0.631826,0.1525098 1.427056,0.1525098 1.699394,0 2.658027,-1.1111426 0.969526,-1.1220361 0.969526,-3.5077245 z"
       style="font-size:22.30999947px;font-family:ProductSans;letter-spacing:0.02em;fill:#ffffff"
       id="path25" />
    <path
       d="m 50.653721,0 h -2.047988 v -16.950371 h 2.047988 z"
       style="font-size:22.30999947px;font-family:ProductSans;letter-spacing:0.02em;fill:#ffffff"
       id="path27" />
    <path
       d="m 57.374608,-14.205195 h -2.309434 v -2.124243 h 2.309434 z M 57.243885,0 h -2.047988 v -12.1681 h 2.047988 z"
       style="font-size:22.30999947px;font-family:ProductSans;letter-spacing:0.02em;fill:#ffffff"
       id="path29" />
    <path
       d="m 71.938854,0 h -2.047989 v -6.9283006 q 0,-0.8388037 -0.09804,-1.5686719 -0.09804,-0.7407617 -0.359487,-1.1547167 -0.272339,-0.4575298 -0.784336,-0.6754008 -0.511997,-0.228764 -1.329013,-0.228764 -0.838804,0 -1.753863,0.413955 -0.915058,0.4139549 -1.753862,1.0566746 V 0 h -2.047988 v -12.1681 h 2.047988 v 1.3508 q 0.958633,-0.795229 1.982627,-1.241865 1.023994,-0.446635 2.102456,-0.446635 1.971733,0 3.006621,1.187397 1.034888,1.187397 1.034888,3.420576 z"
       style="font-size:22.30999947px;font-family:ProductSans;letter-spacing:0.02em;fill:#ffffff"
       id="path31" />
  </g>
  <path
     class="cls-4"
     d="M19.81,20.48a3.61,3.61,0,0,1-4.95,1.33L2.11,14.45A3.63,3.63,0,1,1,5.74,8.17l12.75,7.36A3.62,3.62,0,0,1,19.81,20.48Z"
     id="path20" />
  <path
     class="cls-5"
     d="M26.2,2.14A3.62,3.62,0,0,1,29.34.33a3.58,3.58,0,0,1,1.81.48L43.9,8.17a3.63,3.63,0,0,1-1.82,6.77,3.5,3.5,0,0,1-1.81-.49L27.53,7.1A3.63,3.63,0,0,1,26.2,2.14Z"
     id="path22" />
  <path
     class="cls-6"
     d="M18.49,7.1l-6.41,3.7L6.19,7.4a4.54,4.54,0,0,0-1.74-.58l10.41-6A3.58,3.58,0,0,1,16.67.33,3.63,3.63,0,0,1,18.49,7.1Z"
     id="path24" />
  <path
     class="cls-7"
     d="M27.53,15.53l6.4-3.7,5.89,3.4a4.52,4.52,0,0,0,1.74.57l-10.41,6a3.62,3.62,0,0,1-3.62-6.28Z"
     id="path26" />
  <path
     class="cls-8"
     d="M59.87,18.59a8.31,8.31,0,0,1-4.12-7.24,8.21,8.21,0,0,1,1.12-4.23A8.17,8.17,0,0,1,64,3a8.7,8.7,0,0,1,3.31.62,6.69,6.69,0,0,1,2.55,1.76L68.51,6.77a4.85,4.85,0,0,0-1.94-1.44,6.6,6.6,0,0,0-5.69.31,6.12,6.12,0,0,0-2.33,2.3,6.49,6.49,0,0,0-.88,3.41,6.55,6.55,0,0,0,.88,3.42,6.12,6.12,0,0,0,2.34,2.29,6.32,6.32,0,0,0,3.14.82,6.46,6.46,0,0,0,2.69-.5,6.12,6.12,0,0,0,1.86-1.33,5,5,0,0,0,.93-1.5,6.63,6.63,0,0,0,.45-2h-5.9V10.84h7.65A6.18,6.18,0,0,1,71.83,12a9,9,0,0,1-.47,2.86,6.34,6.34,0,0,1-1.49,2.44A7.59,7.59,0,0,1,64,19.68,8.11,8.11,0,0,1,59.87,18.59Z"
     id="path28" />
  <path
     class="cls-8"
     d="M74.16,3.38H79a8.59,8.59,0,0,1,4.27,1,6.91,6.91,0,0,1,2.81,2.81,8.56,8.56,0,0,1,1,4.14,8.56,8.56,0,0,1-1,4.14,6.88,6.88,0,0,1-2.81,2.82,8.59,8.59,0,0,1-4.27,1H74.16ZM79,17.52a6.13,6.13,0,0,0,4.49-1.63,6.07,6.07,0,0,0,1.65-4.54,6.08,6.08,0,0,0-1.65-4.54A6.17,6.17,0,0,0,79,5.19H76V17.52Z"
     id="path30" />
  <path
     class="cls-8"
     d="M92.71,18.59a8.05,8.05,0,0,1-3-3,8.25,8.25,0,0,1-1.11-4.23A8.3,8.3,0,0,1,89.7,7.12a8,8,0,0,1,3-3A8.11,8.11,0,0,1,96.85,3a8.65,8.65,0,0,1,3.3.62,6.69,6.69,0,0,1,2.55,1.76l-1.36,1.36a4.81,4.81,0,0,0-1.93-1.44,6.54,6.54,0,0,0-2.54-.5,6.37,6.37,0,0,0-3.15.81,6.22,6.22,0,0,0-2.34,2.3,6.49,6.49,0,0,0-.88,3.41,6.55,6.55,0,0,0,.88,3.42,6.15,6.15,0,0,0,2.35,2.29,6.32,6.32,0,0,0,3.14.82,6.41,6.41,0,0,0,2.68-.5,6.12,6.12,0,0,0,1.86-1.33,4.84,4.84,0,0,0,.94-1.5,7,7,0,0,0,.44-2h-5.9V10.84h7.66a7.07,7.07,0,0,1,.11,1.16,8.71,8.71,0,0,1-.47,2.86,6.34,6.34,0,0,1-1.49,2.44,7.58,7.58,0,0,1-5.85,2.38A8.11,8.11,0,0,1,92.71,18.59Z"
     id="path32" />
</svg>
