<?xml version="1.0" encoding="UTF-8" standalone="no"?>
<svg
   xmlns:dc="http://purl.org/dc/elements/1.1/"
   xmlns:cc="http://creativecommons.org/ns#"
   xmlns:rdf="http://www.w3.org/1999/02/22-rdf-syntax-ns#"
   xmlns:svg="http://www.w3.org/2000/svg"
   xmlns="http://www.w3.org/2000/svg"
   xmlns:sodipodi="http://sodipodi.sourceforge.net/DTD/sodipodi-0.dtd"
   xmlns:inkscape="http://www.inkscape.org/namespaces/inkscape"
   viewBox="0 0 420 115.4444"
   height="115.4444"
   width="420"
   xml:space="preserve"
   id="svg2"
   version="1.1"
   sodipodi:docname="new-organizer-logo.svg"
   inkscape:version="0.92.3 (2405546, 2018-03-11)"><sodipodi:namedview
     pagecolor="#ffffff"
     bordercolor="#666666"
     borderopacity="1"
     objecttolerance="10"
     gridtolerance="10"
     guidetolerance="10"
     inkscape:pageopacity="0"
     inkscape:pageshadow="2"
     inkscape:window-width="1920"
     inkscape:window-height="1025"
     id="namedview494"
     showgrid="false"
     inkscape:zoom="1.4543699"
     inkscape:cx="304.12494"
     inkscape:cy="125.56229"
     inkscape:window-x="1600"
     inkscape:window-y="0"
     inkscape:window-maximized="1"
     inkscape:current-layer="svg2" /><metadata
     id="metadata8"><rdf:RDF><cc:Work
         rdf:about=""><dc:format>image/svg+xml</dc:format><dc:type
           rdf:resource="http://purl.org/dc/dcmitype/StillImage" /><dc:title></dc:title></cc:Work></rdf:RDF></metadata><defs
     id="defs6"><clipPath
       id="clipPath18"
       clipPathUnits="userSpaceOnUse"><path
         id="path16"
         d="M 0,86.583 H 517.75 V 0 H 0 Z"
         inkscape:connector-curvature="0" /></clipPath><radialGradient
       id="radialGradient52"
       spreadMethod="pad"
       gradientTransform="matrix(39.151577,-72.199562,-72.199562,-39.151577,10.052464,79.943489)"
       gradientUnits="userSpaceOnUse"
       r="1"
       cy="0"
       cx="0"
       fy="0"
       fx="0"><stop
         id="stop48"
         offset="0"
         style="stop-opacity:1;stop-color:#ffce58" /><stop
         id="stop50"
         offset="1"
         style="stop-opacity:1;stop-color:#f4c345" /></radialGradient><radialGradient
       id="radialGradient72"
       spreadMethod="pad"
       gradientTransform="matrix(39.150661,-72.197876,-72.197876,-39.150661,10.053624,79.942306)"
       gradientUnits="userSpaceOnUse"
       r="1"
       cy="0"
       cx="0"
       fy="0"
       fx="0"><stop
         id="stop68"
         offset="0"
         style="stop-opacity:1;stop-color:#2baa67" /><stop
         id="stop70"
         offset="1"
         style="stop-opacity:1;stop-color:#2a9555" /></radialGradient><radialGradient
       id="radialGradient92"
       spreadMethod="pad"
       gradientTransform="matrix(39.149815,-72.196312,-72.196312,-39.149815,10.052204,79.940872)"
       gradientUnits="userSpaceOnUse"
       r="1"
       cy="0"
       cx="0"
       fy="0"
       fx="0"><stop
         id="stop88"
         offset="0"
         style="stop-opacity:1;stop-color:#5f82c1" /><stop
         id="stop90"
         offset="1"
         style="stop-opacity:1;stop-color:#5f81c0" /></radialGradient><radialGradient
       id="radialGradient112"
       spreadMethod="pad"
       gradientTransform="matrix(39.147926,-72.192833,-72.192833,-39.147926,10.054479,79.940849)"
       gradientUnits="userSpaceOnUse"
       r="1"
       cy="0"
       cx="0"
       fy="0"
       fx="0"><stop
         id="stop108"
         offset="0"
         style="stop-opacity:1;stop-color:#df554b" /><stop
         id="stop110"
         offset="1"
         style="stop-opacity:1;stop-color:#ce463e" /></radialGradient><clipPath
       id="clipPath122"
       clipPathUnits="userSpaceOnUse"><path
         id="path120"
         d="M 0,86.583 H 517.75 V 0 H 0 Z"
         inkscape:connector-curvature="0" /></clipPath><clipPath
       id="clipPath130"
       clipPathUnits="userSpaceOnUse"><path
         id="path128"
         d="M 25.7372,46.2849 H 41.5348 V 22.2869 H 25.7372 Z"
         inkscape:connector-curvature="0" /></clipPath><clipPath
       id="clipPath134"
       clipPathUnits="userSpaceOnUse"><path
         id="path132"
         d="M 40.827,27.81 29.666,46.285 c 0.972,-1.616 0.972,-4.264 0,-5.886 L 25.737,33.856 40.968,22.287 c 0.791,1.636 0.764,4.015 -0.141,5.523"
         inkscape:connector-curvature="0" /></clipPath><linearGradient
       id="linearGradient144"
       spreadMethod="pad"
       gradientTransform="matrix(-19.785164,0,0,19.785164,45.094967,34.285862)"
       gradientUnits="userSpaceOnUse"
       y2="0"
       x2="1"
       y1="0"
       x1="0"><stop
         id="stop140"
         offset="0"
         style="stop-opacity:0.2;stop-color:#ffffff" /><stop
         id="stop142"
         offset="1"
         style="stop-opacity:0.25000381;stop-color:#ffffff" /></linearGradient><mask
       id="mask146"
       height="1"
       width="1"
       y="0"
       x="0"
       maskUnits="userSpaceOnUse"><g
         id="g156"><g
           id="g154"><g
             id="g152"><g
               id="g150"><path
                 id="path148"
                 style="fill:url(#linearGradient144);stroke:none"
                 d="M -32768,32767 H 32767 V -32768 H -32768 Z"
                 inkscape:connector-curvature="0" /></g></g></g></g></mask><linearGradient
       id="linearGradient162"
       spreadMethod="pad"
       gradientTransform="matrix(-19.785164,0,0,19.785164,45.094967,34.285862)"
       gradientUnits="userSpaceOnUse"
       y2="0"
       x2="1"
       y1="0"
       x1="0"><stop
         id="stop158"
         offset="0"
         style="stop-opacity:1;stop-color:#373536" /><stop
         id="stop160"
         offset="1"
         style="stop-opacity:1;stop-color:#f1f1f2" /></linearGradient><clipPath
       id="clipPath188"
       clipPathUnits="userSpaceOnUse"><path
         id="path186"
         d="M 11.6576,78.4997 H 52.5758 V 8.1897 H 11.6576 Z"
         inkscape:connector-curvature="0" /></clipPath><clipPath
       id="clipPath192"
       clipPathUnits="userSpaceOnUse"><path
         id="path190"
         d="M 51.846,46.285 34.264,75.557 C 33.293,77.173 30.953,78.5 29.069,78.5 h -7.953 -7.364 c -1.891,0 -2.641,-1.327 -1.669,-2.943 L 29.666,46.285 c 0.972,-1.616 0.972,-4.264 0,-5.886 L 11.969,10.812 C 11.286,9.349 11.996,8.19 13.752,8.19 h 7.36 7.957 c 1.884,0 4.224,1.321 5.195,2.943 l 13.691,22.785 3.891,6.481 c 0.973,1.622 0.973,4.27 0,5.886"
         inkscape:connector-curvature="0" /></clipPath><radialGradient
       id="radialGradient204"
       spreadMethod="pad"
       gradientTransform="matrix(28.761505,0,0,-28.761505,32.116703,43.344688)"
       gradientUnits="userSpaceOnUse"
       r="1"
       cy="0"
       cx="0"
       fy="0"
       fx="0"><stop
         id="stop198"
         offset="0"
         style="stop-opacity:0.09999237;stop-color:#ffffff" /><stop
         id="stop200"
         offset="0.41503764"
         style="stop-opacity:0;stop-color:#ffffff" /><stop
         id="stop202"
         offset="1"
         style="stop-opacity:0;stop-color:#ffffff" /></radialGradient><mask
       id="mask206"
       height="1"
       width="1"
       y="0"
       x="0"
       maskUnits="userSpaceOnUse"><g
         id="g216"><g
           id="g214"><g
             id="g212"><g
               id="g210"><path
                 id="path208"
                 style="fill:url(#radialGradient204);stroke:none"
                 d="M -32768,32767 H 32767 V -32768 H -32768 Z"
                 inkscape:connector-curvature="0" /></g></g></g></g></mask><radialGradient
       id="radialGradient224"
       spreadMethod="pad"
       gradientTransform="matrix(28.761505,0,0,-28.761505,32.116703,43.344688)"
       gradientUnits="userSpaceOnUse"
       r="1"
       cy="0"
       cx="0"
       fy="0"
       fx="0"><stop
         id="stop218"
         offset="0"
         style="stop-opacity:1;stop-color:#ffffff" /><stop
         id="stop220"
         offset="0.41503764"
         style="stop-opacity:1;stop-color:#ffffff" /><stop
         id="stop222"
         offset="1"
         style="stop-opacity:1;stop-color:#ffffff" /></radialGradient><radialGradient
       id="radialGradient284"
       spreadMethod="pad"
       gradientTransform="matrix(15.149925,0,0,-15.149925,340.22116,32.060863)"
       gradientUnits="userSpaceOnUse"
       r="1"
       cy="0"
       cx="0"
       fy="0"
       fx="0"><stop
         id="stop280"
         offset="0"
         style="stop-opacity:1;stop-color:#5f82c1" /><stop
         id="stop282"
         offset="1"
         style="stop-opacity:1;stop-color:#5f81c0" /></radialGradient><clipPath
       id="clipPath294"
       clipPathUnits="userSpaceOnUse"><path
         id="path292"
         d="M 0,86.583 H 517.75 V 0 H 0 Z"
         inkscape:connector-curvature="0" /></clipPath><radialGradient
       id="radialGradient462"
       spreadMethod="pad"
       gradientTransform="matrix(15.149925,0,0,-15.149925,380.56589,32.060863)"
       gradientUnits="userSpaceOnUse"
       r="1"
       cy="0"
       cx="0"
       fy="0"
       fx="0"><stop
         id="stop458"
         offset="0"
         style="stop-opacity:1;stop-color:#df554b" /><stop
         id="stop460"
         offset="1"
         style="stop-opacity:1;stop-color:#ce463e" /></radialGradient><clipPath
       id="clipPath472"
       clipPathUnits="userSpaceOnUse"><path
         id="path470"
         d="M 0,86.583 H 517.75 V 0 H 0 Z"
         inkscape:connector-curvature="0" /></clipPath><radialGradient
       id="radialGradient592"
       spreadMethod="pad"
       gradientTransform="matrix(15.149925,0,0,-15.149925,420.91061,32.060863)"
       gradientUnits="userSpaceOnUse"
       r="1"
       cy="0"
       cx="0"
       fy="0"
       fx="0"><stop
         id="stop588"
         offset="0"
         style="stop-opacity:1;stop-color:#2baa67" /><stop
         id="stop590"
         offset="1"
         style="stop-opacity:1;stop-color:#2a9555" /></radialGradient><clipPath
       id="clipPath602"
       clipPathUnits="userSpaceOnUse"><path
         id="path600"
         d="M 0,86.583 H 517.75 V 0 H 0 Z"
         inkscape:connector-curvature="0" /></clipPath><radialGradient
       id="radialGradient806"
       spreadMethod="pad"
       gradientTransform="matrix(15.149925,0,0,-15.149925,461.25531,32.060863)"
       gradientUnits="userSpaceOnUse"
       r="1"
       cy="0"
       cx="0"
       fy="0"
       fx="0"><stop
         id="stop802"
         offset="0"
         style="stop-opacity:1;stop-color:#ffce58" /><stop
         id="stop804"
         offset="1"
         style="stop-opacity:1;stop-color:#f4c345" /></radialGradient><clipPath
       id="clipPath816"
       clipPathUnits="userSpaceOnUse"><path
         id="path814"
         d="M 0,86.583 H 517.75 V 0 H 0 Z"
         inkscape:connector-curvature="0" /></clipPath><clipPath
       id="clipPath1022"
       clipPathUnits="userSpaceOnUse"><path
         id="path1020"
         d="M 0,86.583 H 517.75 V 0 H 0 Z"
         inkscape:connector-curvature="0" /></clipPath></defs><path
     id="path26"
     style="fill:#757575;fill-opacity:1;fill-rule:nonzero;stroke:none;stroke-width:1.33333325"
     d="m 104.61746,53.845753 h 19.184 v 23.978666 c -5.21067,1.788 -10.93067,2.673333 -17.18533,2.673333 -6.84667,0 -12.141336,-1.984 -15.888003,-5.956 -3.746667,-3.971999 -5.608,-9.649333 -5.608,-17.017332 0,-7.169334 2.042667,-12.748 6.142667,-16.746667 4.097333,-4.001333 9.831996,-5.973333 17.213336,-5.973333 2.80133,0 5.436,0.253333 7.91333,0.788 2.49733,0.521333 4.66533,1.184 6.512,1.986667 l -3.81867,9.424 c -3.19866,-1.58 -6.71866,-2.368 -10.552,-2.368 -3.49333,0 -6.21066,1.154666 -8.12666,3.423999 -1.929337,2.282667 -2.873336,5.533334 -2.873336,9.777334 0,4.155999 0.858666,7.323999 2.606666,9.505333 1.71733,2.185333 4.21067,3.257333 7.48,3.257333 1.78933,0 3.436,-0.157333 4.928,-0.510667 v -6.957333 h -7.928 z"
     inkscape:connector-curvature="0" /><path
     id="path30"
     style="fill:#757575;fill-opacity:1;fill-rule:nonzero;stroke:none;stroke-width:1.33333325"
     d="m 168.10133,56.721619 c 0,7.409333 -2.02667,13.129333 -6.12533,17.144 -4.072,4.014666 -9.81734,6.015999 -17.21334,6.015999 H 130.38133 V 35.42162 h 15.38133 c 7.12667,0 12.636,1.833333 16.52134,5.481333 3.888,3.636 5.81733,8.917333 5.81733,15.818666 M 155.636,57.144286 c 0,-4.086667 -0.80267,-7.1 -2.408,-9.072 -1.60667,-1.957333 -4.072,-2.945333 -7.352,-2.945333 h -3.49467 v 24.907999 h 2.67733 c 3.66134,0 6.33734,-1.058667 8.028,-3.185333 1.70534,-2.098667 2.54934,-5.352 2.54934,-9.705333"
     inkscape:connector-curvature="0" /><path
     id="path34"
     style="fill:#757575;fill-opacity:1;fill-rule:nonzero;stroke:none;stroke-width:1.33333325"
     d="m 191.42973,53.845753 h 19.2 v 23.978666 c -5.21333,1.788 -10.944,2.673333 -17.18533,2.673333 -6.84667,0 -12.14267,-1.984 -15.89067,-5.956 -3.732,-3.971999 -5.604,-9.649333 -5.604,-17.017332 0,-7.169334 2.04,-12.748 6.13867,-16.746667 4.08666,-4.001333 9.832,-5.973333 17.21466,-5.973333 2.78934,0 5.43867,0.253333 7.93067,0.788 2.46533,0.521333 4.636,1.184 6.47867,1.986667 l -3.8,9.424 c -3.19867,-1.58 -6.72267,-2.368 -10.552,-2.368 -3.50934,0 -6.212,1.154666 -8.14134,3.423999 -1.90266,2.282667 -2.86133,5.533334 -2.86133,9.777334 0,4.155999 0.86,7.323999 2.592,9.505333 1.73333,2.185333 4.22533,3.257333 7.49333,3.257333 1.78934,0 3.44,-0.157333 4.932,-0.510667 v -6.957333 h -7.94533 z"
     inkscape:connector-curvature="0" /><path
     id="path246"
     style="fill:#757575;fill-opacity:1;fill-rule:nonzero;stroke:none;stroke-width:1.33333325"
     d="m 264.40586,57.055619 c 0,-10.673333 -4.99067,-16.009333 -14.972,-16.009333 h -6.31333 v 32.353333 h 5.184 c 10.73466,0 16.10133,-5.446667 16.10133,-16.344 m 7.68533,-0.245333 c 0,7.361333 -2.044,12.987999 -6.13066,16.879999 -4.08534,3.893333 -9.97067,5.84 -17.656,5.84 h -12.472 V 34.94762 h 13.784 c 7.09466,0 12.61466,1.910666 16.55866,5.733333 3.944,3.821333 5.916,9.198666 5.916,16.129333"
     inkscape:connector-curvature="0" /><path
     id="path250"
     style="fill:#757575;fill-opacity:1;fill-rule:nonzero;stroke:none;stroke-width:1.33333325"
     d="m 300.94186,79.529886 -1.00533,-4.421333 h -0.36667 c -0.996,1.565333 -2.41333,2.794666 -4.25333,3.689333 -1.84134,0.894667 -3.94,1.341333 -6.29734,1.341333 -4.08666,0 -7.136,-1.016 -9.148,-3.049333 -2.01333,-2.032 -3.02,-5.112 -3.02,-9.24 V 45.80322 h 7.22667 v 20.797333 c 0,2.581333 0.52933,4.518667 1.58667,5.808 1.05733,1.292 2.71333,1.937333 4.97066,1.937333 3.008,0 5.21867,-0.898667 6.632,-2.698666 1.41334,-1.798667 2.12,-4.813334 2.12,-9.041334 V 45.80322 h 7.196 v 33.726666 z"
     inkscape:connector-curvature="0" /><path
     id="path254"
     style="fill:#757575;fill-opacity:1;fill-rule:nonzero;stroke:none;stroke-width:1.33333325"
     d="m 328.42173,51.048286 c -2.88667,0 -4.96533,0.849333 -6.236,2.546667 -1.27067,1.697333 -1.92667,4.538666 -1.968,8.522666 v 0.488 c 0,4.106667 0.65067,7.078667 1.95333,8.918666 1.3,1.841334 3.42534,2.76 6.37334,2.76 2.54,0 4.46666,-1.005333 5.77866,-3.017333 1.31067,-2.013333 1.96534,-4.921333 1.96534,-8.722666 0,-7.664 -2.62134,-11.496 -7.86667,-11.496 m 1.86,-5.856 c 4.208,0 7.48667,1.526667 9.83467,4.574667 2.348,3.049333 3.52133,7.329333 3.52133,12.838666 0,5.529333 -1.18933,9.834666 -3.56667,12.913333 -2.37866,3.081333 -5.68266,4.62 -9.91066,4.62 -4.27067,0 -7.584,-1.533333 -9.94267,-4.604 h -0.48667 l -1.31066,3.994667 h -5.368 V 32.080286 h 7.16533 v 11.282667 c 0,0.834667 -0.04,2.074666 -0.12,3.721333 -0.0827,1.646667 -0.14267,2.693333 -0.184,3.14 h 0.304 c 2.27733,-3.354667 5.63333,-5.032 10.064,-5.032"
     inkscape:connector-curvature="0" /><path
     inkscape:connector-curvature="0"
     d="m 355.38132,79.529752 h -7.16533 V 32.08042 h 7.16533 z"
     style="fill:#757575;fill-opacity:1;fill-rule:nonzero;stroke:none;stroke-width:1.33333325"
     id="path256" /><path
     inkscape:connector-curvature="0"
     d="m 369.04666,79.529752 h -7.16534 V 45.803086 h 7.16534 z m -7.592,-42.661332 c 0,-1.281333 0.35066,-2.266667 1.052,-2.958667 0.7,-0.690666 1.70266,-1.036 3.00266,-1.036 1.26134,0 2.24267,0.345334 2.94267,1.036 0.70267,0.692 1.052,1.677334 1.052,2.958667 0,1.22 -0.34933,2.18 -1.052,2.881333 -0.7,0.701334 -1.68133,1.052 -2.94267,1.052 -1.3,0 -2.30266,-0.350666 -3.00266,-1.052 -0.70134,-0.701333 -1.052,-1.661333 -1.052,-2.881333"
     style="fill:#757575;fill-opacity:1;fill-rule:nonzero;stroke:none;stroke-width:1.33333325"
     id="path258" /><path
     id="path262"
     style="fill:#757575;fill-opacity:1;fill-rule:nonzero;stroke:none;stroke-width:1.33333325"
     d="m 405.21599,79.529886 h -7.196 V 58.793887 c 0,-2.602667 -0.52267,-4.544 -1.57067,-5.825334 -1.048,-1.28 -2.70933,-1.92 -4.98533,-1.92 -3.03067,0 -5.24533,0.894667 -6.648,2.682667 -1.40267,1.789333 -2.10533,4.788 -2.10533,8.996 v 16.802666 h -7.16534 V 45.80322 h 5.61067 l 1.00667,4.421333 h 0.36666 c 1.016,-1.605333 2.45867,-2.846666 4.32934,-3.72 1.87066,-0.874666 3.944,-1.311999 6.22133,-1.311999 8.09067,0 12.136,4.117333 12.136,12.350666 z"
     inkscape:connector-curvature="0" /><g
     id="g5641"
     transform="matrix(0.89594231,0,0,0.95513342,32.102655,-45.868611)"><path
       id="XMLID_259_"
       class="st0"
       d="M 1.3711135,57.867516 H -16.745334 l 51.769291,79.690304 9.086268,-13.9458 z"
       inkscape:connector-curvature="0"
       style="fill:#757575;stroke-width:0.52854019" /><path
       id="XMLID_258_"
       class="st0"
       d="M 51.065148,103.19138 21.56282,57.867516 H 3.5024603 l 41.6734377,64.150694 5.88925,-9.06477 c 0.953498,-1.39458 1.570466,-3.088 1.570466,-4.88103 -0.05609,-1.79303 -0.616968,-3.43664 -1.570466,-4.88103 z"
       inkscape:connector-curvature="0"
       style="fill:#757575;stroke-width:0.52854019" /><path
       id="XMLID_257_"
       class="st0"
       d="M 14.832251,109.71602 -16.240541,157.4804 H 1.8759062 L 23.918519,123.61202 Z"
       inkscape:connector-curvature="0"
       style="fill:#757575;stroke-width:0.52854019" /><path
       id="XMLID_256_"
       class="st0"
       d="M 24.928104,125.25563 4.007253,157.4804 h 18.060359 l 11.94676,-18.32877 z"
       inkscape:connector-curvature="0"
       style="fill:#757575;stroke-width:0.52854019" /></g></svg>