<?xml version="1.0" encoding="UTF-8" standalone="no"?>
<svg
   xmlns:dc="http://purl.org/dc/elements/1.1/"
   xmlns:cc="http://creativecommons.org/ns#"
   xmlns:rdf="http://www.w3.org/1999/02/22-rdf-syntax-ns#"
   xmlns:svg="http://www.w3.org/2000/svg"
   xmlns="http://www.w3.org/2000/svg"
   xmlns:sodipodi="http://sodipodi.sourceforge.net/DTD/sodipodi-0.dtd"
   xmlns:inkscape="http://www.inkscape.org/namespaces/inkscape"
   id="Layer_1"
   data-name="Layer 1"
   viewBox="0 0 188.62 22.66"
   version="1.1"
   sodipodi:docname="organizer-logo.svg"
   inkscape:version="0.92.4 (5da689c313, 2019-01-14)">
  <metadata
     id="metadata37">
    <rdf:RDF>
      <cc:Work
         rdf:about="">
        <dc:format>image/svg+xml</dc:format>
        <dc:type
           rdf:resource="http://purl.org/dc/dcmitype/StillImage" />
      </cc:Work>
    </rdf:RDF>
  </metadata>
  <sodipodi:namedview
     pagecolor="#ffffff"
     bordercolor="#666666"
     borderopacity="1"
     objecttolerance="10"
     gridtolerance="10"
     guidetolerance="10"
     inkscape:pageopacity="0"
     inkscape:pageshadow="2"
     inkscape:window-width="3840"
     inkscape:window-height="2126"
     id="namedview35"
     showgrid="false"
     inkscape:snap-text-baseline="false"
     inkscape:zoom="22.065264"
     inkscape:cx="118.06765"
     inkscape:cy="-15.414589"
     inkscape:window-x="-11"
     inkscape:window-y="-11"
     inkscape:window-maximized="1"
     inkscape:current-layer="Layer_1" />
  <defs
     id="defs4">
    <style
       id="style2">.cls-1{fill:#616161;}</style>
  </defs>
  <title
     id="title6">GDGDublin-grey</title>
  <path
     class="cls-1"
     d="M19.81,20.48a3.61,3.61,0,0,1-4.95,1.33L2.11,14.45A3.63,3.63,0,1,1,5.74,8.17l12.75,7.36A3.62,3.62,0,0,1,19.81,20.48Z"
     id="path20" />
  <path
     class="cls-1"
     d="M26.2,2.14A3.62,3.62,0,0,1,29.34.33a3.58,3.58,0,0,1,1.81.48L43.9,8.17a3.63,3.63,0,0,1-1.82,6.77,3.5,3.5,0,0,1-1.81-.49L27.53,7.1A3.63,3.63,0,0,1,26.2,2.14Z"
     id="path22" />
  <path
     class="cls-1"
     d="M18.49,7.1l-6.41,3.7L6.19,7.4a4.54,4.54,0,0,0-1.74-.58l10.41-6A3.58,3.58,0,0,1,16.67.33,3.63,3.63,0,0,1,18.49,7.1Z"
     id="path24" />
  <path
     class="cls-1"
     d="M27.53,15.53l6.4-3.7,5.89,3.4a4.52,4.52,0,0,0,1.74.57l-10.41,6a3.62,3.62,0,0,1-3.62-6.28Z"
     id="path26" />
  <path
     class="cls-1"
     d="M59.87,18.59a8.31,8.31,0,0,1-4.12-7.24,8.21,8.21,0,0,1,1.12-4.23A8.17,8.17,0,0,1,64,3a8.7,8.7,0,0,1,3.31.62,6.69,6.69,0,0,1,2.55,1.76L68.51,6.77a4.85,4.85,0,0,0-1.94-1.44,6.6,6.6,0,0,0-5.69.31,6.12,6.12,0,0,0-2.33,2.3,6.49,6.49,0,0,0-.88,3.41,6.55,6.55,0,0,0,.88,3.42,6.12,6.12,0,0,0,2.34,2.29,6.32,6.32,0,0,0,3.14.82,6.46,6.46,0,0,0,2.69-.5,6.12,6.12,0,0,0,1.86-1.33,5,5,0,0,0,.93-1.5,6.63,6.63,0,0,0,.45-2h-5.9V10.84h7.65A6.18,6.18,0,0,1,71.83,12a9,9,0,0,1-.47,2.86,6.34,6.34,0,0,1-1.49,2.44A7.59,7.59,0,0,1,64,19.68,8.11,8.11,0,0,1,59.87,18.59Z"
     id="path28" />
  <path
     class="cls-1"
     d="M74.16,3.38H79a8.59,8.59,0,0,1,4.27,1,6.91,6.91,0,0,1,2.81,2.81,8.56,8.56,0,0,1,1,4.14,8.56,8.56,0,0,1-1,4.14,6.88,6.88,0,0,1-2.81,2.82,8.59,8.59,0,0,1-4.27,1H74.16ZM79,17.52a6.13,6.13,0,0,0,4.49-1.63,6.07,6.07,0,0,0,1.65-4.54,6.08,6.08,0,0,0-1.65-4.54A6.17,6.17,0,0,0,79,5.19H76V17.52Z"
     id="path30" />
  <path
     class="cls-1"
     d="M92.71,18.59a8.05,8.05,0,0,1-3-3,8.25,8.25,0,0,1-1.11-4.23A8.3,8.3,0,0,1,89.7,7.12a8,8,0,0,1,3-3A8.11,8.11,0,0,1,96.85,3a8.65,8.65,0,0,1,3.3.62,6.69,6.69,0,0,1,2.55,1.76l-1.36,1.36a4.81,4.81,0,0,0-1.93-1.44,6.54,6.54,0,0,0-2.54-.5,6.37,6.37,0,0,0-3.15.81,6.22,6.22,0,0,0-2.34,2.3,6.49,6.49,0,0,0-.88,3.41,6.55,6.55,0,0,0,.88,3.42,6.15,6.15,0,0,0,2.35,2.29,6.32,6.32,0,0,0,3.14.82,6.41,6.41,0,0,0,2.68-.5,6.12,6.12,0,0,0,1.86-1.33,4.84,4.84,0,0,0,.94-1.5,7,7,0,0,0,.44-2h-5.9V10.84h7.66a7.07,7.07,0,0,1,.11,1.16,8.71,8.71,0,0,1-.47,2.86,6.34,6.34,0,0,1-1.49,2.44,7.58,7.58,0,0,1-5.85,2.38A8.11,8.11,0,0,1,92.71,18.59Z"
     id="path32" />
  <g
     aria-label="Dublin"
     style="font-size:22.30999947px;font-family:ProductSans-Regular, 'Product Sans';letter-spacing:0.02em;fill:#616161;fill-opacity:1"
     id="text3776">
    <path
       d="m 129.34199,11.225383 q 0,2.211392 -0.96952,4.008828 -0.95864,1.797437 -2.55999,2.78875 -1.11114,0.686294 -2.48373,0.991313 -1.36169,0.30502 -3.59487,0.30502 H 115.6379 V 3.0987914 h 4.0524 q 2.3748,0 3.76917,0.3485938 1.40527,0.3377002 2.3748,0.9368457 1.65582,1.0348876 2.58177,2.7560692 0.92595,1.7211816 0.92595,4.0850829 z m -2.25496,-0.03268 q 0,-1.9063717 -0.66451,-3.2135982 -0.66451,-1.3072265 -1.98263,-2.0588818 -0.95863,-0.5446777 -2.03709,-0.7516552 -1.07846,-0.2178711 -2.58177,-0.2178711 h -2.0262 V 17.46739 h 2.0262 q 1.55777,0 2.71249,-0.228765 1.16561,-0.228765 2.13514,-0.849697 1.20918,-0.773443 1.80833,-2.037095 0.61004,-1.263652 0.61004,-3.159131 z"
       style="letter-spacing:0.01em;fill:#616161;fill-opacity:1"
       id="path17" />
    <path
       d="m 142.99685,19.319294 h -2.04799 v -1.350801 q -1.03489,0.817017 -1.98263,1.252759 -0.94774,0.435742 -2.09156,0.435742 -1.91727,0 -2.98483,-1.16561 -1.06757,-1.176504 -1.06757,-3.442363 V 7.1511937 h 2.04799 v 6.9283003 q 0,0.925952 0.0871,1.590459 0.0871,0.653614 0.37038,1.122036 0.29413,0.479317 0.76255,0.697188 0.46843,0.217871 1.3617,0.217871 0.79523,0 1.73207,-0.413955 0.94774,-0.413955 1.76476,-1.056675 V 7.1511937 h 2.04799 z"
       style="letter-spacing:0.01em;fill:#616161;fill-opacity:1"
       id="path19" />
    <path
       d="m 157.95893,13.142649 q 0,1.525097 -0.43575,2.745175 -0.42484,1.220078 -1.15471,2.047989 -0.77345,0.86059 -1.6994,1.296333 -0.92595,0.424848 -2.03709,0.424848 -1.03489,0 -1.80833,-0.250552 -0.77344,-0.239658 -1.5251,-0.653613 l -0.13072,0.566465 h -1.91727 V 2.3689233 h 2.04799 v 6.0568162 q 0.86059,-0.708081 1.83012,-1.1547167 0.96952,-0.4575293 2.17871,-0.4575293 2.15692,0 3.39879,1.6558203 1.25276,1.6558202 1.25276,4.6733352 z m -2.11335,0.05447 q 0,-2.17871 -0.71898,-3.3007466 -0.71897,-1.1329297 -2.32033,-1.1329297 -0.89327,0 -1.80833,0.392168 -0.91505,0.3812744 -1.69939,0.9913133 v 6.971875 q 0.87148,0.392168 1.49242,0.544678 0.63182,0.152509 1.42705,0.152509 1.6994,0 2.65803,-1.111142 0.96953,-1.122036 0.96953,-3.507725 z"
       style="letter-spacing:0.01em;fill:#616161;fill-opacity:1"
       id="path21" />
    <path
       d="m 163.44361,19.319294 h -2.04799 V 2.3689233 h 2.04799 z"
       style="letter-spacing:0.01em;fill:#616161;fill-opacity:1"
       id="path23" />
    <path
       d="m 169.9414,5.114099 h -2.30943 V 2.9898559 h 2.30943 z m -0.13072,14.205195 h -2.04799 V 7.1511937 h 2.04799 z"
       style="letter-spacing:0.01em;fill:#616161;fill-opacity:1"
       id="path25" />
    <path
       d="m 184.28255,19.319294 h -2.04799 v -6.928301 q 0,-0.838803 -0.098,-1.568671 -0.0981,-0.740762 -0.35949,-1.1547172 -0.27234,-0.4575293 -0.78434,-0.6754004 -0.51199,-0.2287647 -1.32901,-0.2287647 -0.8388,0 -1.75386,0.4139551 -0.91506,0.4139551 -1.75387,1.0566752 v 9.085224 h -2.04798 V 7.1511937 h 2.04798 v 1.3508007 q 0.95864,-0.7952294 1.98263,-1.2418652 1.024,-0.4466357 2.10246,-0.4466357 1.97173,0 3.00662,1.1873974 1.03489,1.1873975 1.03489,3.4205761 z"
       style="letter-spacing:0.01em;fill:#616161;fill-opacity:1"
       id="path27" />
  </g>
</svg>
